<svg width="44" height="44" xmlns="http://www.w3.org/2000/svg">
    <g fill="#000" fill-rule="evenodd">
        <circle cx="22" cy="22" r="18" fill="none"/>
        <path d="M13 30.962 13.409 16h17.182l-.01.033.43 14.967L13 30.962zM22 13c1.558 0 3.011.738 4.037 2h-8.074c1.026-1.262 2.479-2 4.037-2zm9.58 3.006c-.016-.561-.454-1.006-.989-1.006h-3.326c-1.21-1.88-3.152-3-5.265-3-2.113 0-4.055 1.12-5.265 3h-3.326c-.535 0-.973.445-.989 1.006L12 30.934c-.016.584.432 1.066.989 1.066h18.022c.557 0 1.005-.482.989-1.066l-.42-14.928z"/>
    </g>
</svg>
